<svg width="512" height="512" xmlns="http://www.w3.org/2000/svg" xmlns:xlink="http://www.w3.org/1999/xlink" xml:space="preserve" overflow="hidden"><defs><clipPath id="clip0"><rect x="0" y="0" width="512" height="512"/></clipPath></defs><g clip-path="url(#clip0)"><path d="M170.698 448 72.757 448C67.943 447.988 64.043 444.089 64.032 439.275L64.032 72.725C64.044 67.911 67.943 64.011 72.757 64L170.698 64C188.371 64 202.698 49.673 202.698 32 202.698 14.327 188.371-7.10543e-15 170.698-7.10543e-15L72.757-7.10543e-15C32.611 0.047 0.079 32.58 0.032 72.725L0.032 439.274C0.079 479.42 32.611 511.953 72.757 512L170.698 512C188.371 512 202.698 497.673 202.698 480 202.698 462.327 188.371 448 170.698 448Z" fill="#C62828"/><path d="M483.914 188.117 401.098 105.365C388.597 92.87 368.334 92.875 355.839 105.376 343.344 117.877 343.349 138.14 355.85 150.635L428.639 223.403 138.698 224C121.025 224 106.698 238.327 106.698 256 106.698 273.673 121.025 288 138.698 288L138.698 288 429.813 287.467 355.85 361.43C343.808 374.366 344.533 394.614 357.468 406.656 369.763 418.101 388.814 418.092 401.098 406.635L483.85 323.883C521.341 286.393 521.341 225.609 483.851 188.119 483.851 188.119 483.85 188.118 483.85 188.118L483.914 188.117Z" fill="#C62828"/></g></svg>